<?xml version="1.0" encoding="UTF-8" standalone="no"?>
<!-- Created with Inkscape (http://www.inkscape.org/) -->

<svg
   xmlns:dc="http://purl.org/dc/elements/1.1/"
   xmlns:cc="http://creativecommons.org/ns#"
   xmlns:rdf="http://www.w3.org/1999/02/22-rdf-syntax-ns#"
   xmlns:svg="http://www.w3.org/2000/svg"
   xmlns="http://www.w3.org/2000/svg"
   xmlns:sodipodi="http://sodipodi.sourceforge.net/DTD/sodipodi-0.dtd"
   xmlns:inkscape="http://www.inkscape.org/namespaces/inkscape"
   width="361.05698mm"
   height="100.0338mm"
   viewBox="0 0 361.05698 100.0338"
   version="1.1"
   id="svg8"
   inkscape:version="0.92.1 r15371"
   sodipodi:docname="illuminationentertainmentlogo.svg">
  <defs
     id="defs2" />
  <sodipodi:namedview
     id="base"
     pagecolor="#ffffff"
     bordercolor="#666666"
     borderopacity="1.0"
     inkscape:pageopacity="0.0"
     inkscape:pageshadow="2"
     inkscape:zoom="0.56651407"
     inkscape:cx="803.85246"
     inkscape:cy="169.15463"
     inkscape:document-units="mm"
     inkscape:current-layer="layer2"
     showgrid="false"
     inkscape:window-width="1366"
     inkscape:window-height="705"
     inkscape:window-x="-8"
     inkscape:window-y="-8"
     inkscape:window-maximized="1" />
  <metadata
     id="metadata5">
    <rdf:RDF>
      <cc:Work
         rdf:about="">
        <dc:format>image/svg+xml</dc:format>
        <dc:type
           rdf:resource="http://purl.org/dc/dcmitype/StillImage" />
        <dc:title></dc:title>
      </cc:Work>
    </rdf:RDF>
  </metadata>
  <g
     inkscape:groupmode="layer"
     id="layer2"
     inkscape:label="Layer 2"
     transform="translate(62.68182,-88.753125)">
    <g
       id="g109">
      <g
         id="text24"
         style="font-style:normal;font-variant:normal;font-weight:bold;font-stretch:normal;font-size:87.93908691px;line-height:1.25;font-family:Futura;-inkscape-font-specification:'Futura Bold';text-align:center;letter-spacing:0px;word-spacing:0px;writing-mode:lr-tb;text-anchor:middle;fill:#000000;fill-opacity:1;stroke:none;stroke-width:0.26458326"
         transform="scale(0.93470445,1.0698569)"
         aria-label="ILLUMINATION">
        <path
           id="path30"
           style="font-style:normal;font-variant:normal;font-weight:500;font-stretch:condensed;font-family:Futura;-inkscape-font-specification:'Futura Medium Condensed';stroke-width:0.26458326"
           d="m -67.060577,83.81672 h 8.931314 v 66.29783 h -8.931314 z"
           inkscape:connector-curvature="0" />
        <path
           id="path32"
           style="font-style:normal;font-variant:normal;font-weight:500;font-stretch:condensed;font-family:Futura;-inkscape-font-specification:'Futura Medium Condensed';stroke-width:0.26458326"
           d="m -47.823902,83.81672 h 8.931314 v 58.74056 h 14.599262 v 7.55727 h -23.530576 z"
           inkscape:connector-curvature="0" />
        <path
           id="path34"
           style="font-style:normal;font-variant:normal;font-weight:500;font-stretch:condensed;font-family:Futura;-inkscape-font-specification:'Futura Medium Condensed';stroke-width:0.26458326"
           d="m -18.625377,83.81672 h 8.9313134 v 58.74056 H 4.9051989 v 7.55727 H -18.625377 Z"
           inkscape:connector-curvature="0" />
        <path
           id="path36"
           style="font-style:normal;font-variant:normal;font-weight:500;font-stretch:condensed;font-family:Futura;-inkscape-font-specification:'Futura Medium Condensed';stroke-width:0.26458326"
           d="m 11.260171,83.81672 h 8.759557 v 46.84646 q 0,7.17081 1.28817,9.53246 1.331109,2.36164 5.238559,2.36164 3.90745,0 5.152681,-2.06107 1.28817,-2.10401 1.28817,-8.54486 V 83.81672 h 8.759558 v 48.13463 q 0,10.82063 -3.306304,14.6422 -3.950389,4.33684 -12.065861,4.33684 -8.931313,0 -12.581129,-5.58207 -2.533401,-3.82157 -2.533401,-14.68514 z"
           inkscape:connector-curvature="0" />
        <path
           id="path38"
           style="font-style:normal;font-variant:normal;font-weight:500;font-stretch:condensed;font-family:Futura;-inkscape-font-specification:'Futura Medium Condensed';stroke-width:0.26458326"
           d="m 55.100902,83.81672 h 7.643144 l 5.839705,27.05158 q 1.073475,5.0668 1.932255,10.17654 0.901719,5.0668 1.631682,10.64887 0.08588,-0.72996 0.128817,-1.11641 0.04294,-0.42939 0.08588,-0.60115 l 1.245232,-7.6002 1.116414,-7.21375 0.987597,-4.76623 5.19562,-26.57925 h 7.729021 l 6.097339,66.29783 H 86.188746 L 84.68588,127.61451 q -0.08588,-1.71756 -0.171756,-2.96279 -0.04294,-1.24523 -0.04294,-2.06108 l -0.386451,-8.88837 -0.214695,-8.15841 q 0,-0.0859 -0.04294,-0.34351 0,-0.30058 -0.04294,-0.77291 l -0.214695,1.33111 q -0.343512,2.36165 -0.644085,4.12215 -0.257634,1.7605 -0.472329,2.96279 l -1.116414,6.0544 -0.42939,2.27577 -5.582071,28.94089 h -6.011461 l -5.238559,-24.9905 Q 63.00168,120.18606 62.1429,115.11926 61.327058,110.00951 60.640034,104.42744 l -2.57634,45.68711 h -8.416045 z"
           inkscape:connector-curvature="0" />
        <path
           id="path40"
           style="font-style:normal;font-variant:normal;font-weight:500;font-stretch:condensed;font-family:Futura;-inkscape-font-specification:'Futura Medium Condensed';stroke-width:0.26458326"
           d="m 102.11911,83.81672 h 8.93131 v 66.29783 h -8.93131 z"
           inkscape:connector-curvature="0" />
        <path
           id="path42"
           style="font-style:normal;font-variant:normal;font-weight:500;font-stretch:condensed;font-family:Futura;-inkscape-font-specification:'Futura Medium Condensed';stroke-width:0.26458326"
           d="m 121.35579,83.81672 h 8.33017 l 8.88837,26.45043 q 3.86451,11.20708 6.8273,23.91703 -1.07347,-7.68609 -1.58874,-13.91224 -0.51527,-6.22616 -0.51527,-11.72235 V 83.81672 h 8.97425 v 66.29783 h -8.3731 l -10.00479,-29.84261 q -1.37405,-4.16509 -2.61928,-8.54486 -1.20229,-4.37978 -2.23283,-9.18895 -0.0859,-0.60115 -0.30057,-1.45993 -0.17176,-0.85878 -0.42939,-1.975193 0.12882,1.116413 0.21469,1.932253 0.0859,0.7729 0.12882,1.33111 l 0.47233,6.74143 0.47233,8.20135 q 0.0429,0.68702 0.0429,1.67462 0.0429,0.98759 0.0429,2.23283 l 0.47233,28.89795 h -8.8025 z"
           inkscape:connector-curvature="0" />
        <path
           id="path44"
           style="font-style:normal;font-variant:normal;font-weight:500;font-stretch:condensed;font-family:Futura;-inkscape-font-specification:'Futura Medium Condensed';stroke-width:0.26458326"
           d="m 173.22611,83.81672 h 6.95612 l 14.21281,66.29783 h -8.84544 l -2.49046,-12.92464 H 169.9198 l -2.5334,12.92464 h -8.5878 z m 8.54486,46.46001 -1.97519,-10.563 q -1.9752,-10.77769 -3.22043,-23.015307 -0.60115,5.968517 -1.5458,12.108797 -0.94466,6.09734 -2.23283,12.96758 l -1.63168,8.50193 z"
           inkscape:connector-curvature="0" />
        <path
           id="path46"
           style="font-style:normal;font-variant:normal;font-weight:500;font-stretch:condensed;font-family:Futura;-inkscape-font-specification:'Futura Medium Condensed';stroke-width:0.26458326"
           d="m 193.02099,83.81672 h 29.06971 v 7.8149 h -10.00479 v 58.48293 h -8.75956 V 91.63162 h -10.30536 z"
           inkscape:connector-curvature="0" />
        <path
           id="path48"
           style="font-style:normal;font-variant:normal;font-weight:500;font-stretch:condensed;font-family:Futura;-inkscape-font-specification:'Futura Medium Condensed';stroke-width:0.26458326"
           d="m 226.98575,83.81672 h 8.93131 v 66.29783 h -8.93131 z"
           inkscape:connector-curvature="0" />
        <path
           id="path50"
           style="font-style:normal;font-variant:normal;font-weight:500;font-stretch:condensed;font-family:Futura;-inkscape-font-specification:'Futura Medium Condensed';stroke-width:0.26458326"
           d="m 279.41427,118.59732 q 0,17.56205 -3.90745,24.94756 -3.90745,7.38551 -13.0964,7.38551 -9.66128,0 -13.61167,-7.94372 -3.90745,-7.77196 -3.90745,-27.60978 0,-17.69087 3.86451,-25.03344 3.90745,-7.38551 13.22522,-7.38551 8.33017,0 12.36643,5.710888 2.66222,3.821572 3.86451,10.863569 1.2023,6.526733 1.2023,19.064923 z m -9.36071,0.94465 q 0,-17.21854 -1.5458,-22.843547 -1.54581,-5.667949 -6.31204,-5.667949 -4.76623,0 -6.35497,5.19562 -1.5458,5.238556 -1.5458,21.040116 0,14.55632 1.63168,20.18133 1.67462,5.32444 6.26909,5.32444 4.5086,0 6.18322,-4.98093 1.67462,-4.93798 1.67462,-18.24908 z"
           inkscape:connector-curvature="0" />
        <path
           id="path52"
           style="font-style:normal;font-variant:normal;font-weight:500;font-stretch:condensed;font-family:Futura;-inkscape-font-specification:'Futura Medium Condensed';stroke-width:0.26458326"
           d="m 288.30264,83.81672 h 8.33017 l 8.88838,26.45043 q 3.86451,11.20708 6.8273,23.91703 -1.07348,-7.68609 -1.58875,-13.91224 -0.51526,-6.22616 -0.51526,-11.72235 V 83.81672 h 8.97425 v 66.29783 h -8.37311 l -10.00479,-29.84261 q -1.37404,-4.16509 -2.61928,-8.54486 -1.20229,-4.37978 -2.23282,-9.18895 -0.0859,-0.60115 -0.30058,-1.45993 -0.17175,-0.85878 -0.42939,-1.975193 0.12882,1.116413 0.2147,1.932253 0.0859,0.7729 0.12881,1.33111 l 0.47233,6.74143 0.47233,8.20135 q 0.0429,0.68702 0.0429,1.67462 0.0429,0.98759 0.0429,2.23283 l 0.47233,28.89795 h -8.8025 z"
           inkscape:connector-curvature="0" />
      </g>
      <g
         id="text28"
         style="font-style:normal;font-variant:normal;font-weight:bold;font-stretch:normal;font-size:46.53280258px;line-height:1.25;font-family:Futura;-inkscape-font-specification:'Futura Bold';text-align:center;letter-spacing:0px;word-spacing:0px;writing-mode:lr-tb;text-anchor:middle;fill:#000000;fill-opacity:1;stroke:none;stroke-width:0.26458332"
         transform="scale(1.5410035,0.64892781)"
         aria-label="ENTERTAINMENT">
        <path
           id="path55"
           style="font-style:normal;font-variant:normal;font-weight:500;font-stretch:condensed;font-family:Futura;-inkscape-font-specification:'Futura Medium Condensed';stroke-width:0.26458332"
           d="m -40.6409,255.83992 h 12.564765 v 3.99892 h -7.838777 v 11.11061 h 6.952655 v 3.99892 h -6.952655 v 11.97401 h 7.838777 v 3.99892 H -40.6409 Z"
           inkscape:connector-curvature="0" />
        <path
           id="path57"
           style="font-style:normal;font-variant:normal;font-weight:500;font-stretch:condensed;font-family:Futura;-inkscape-font-specification:'Futura Medium Condensed';stroke-width:0.26458332"
           d="m -23.736405,255.83992 h 4.407893 l 4.703266,13.9962 q 2.044899,5.9302 3.612654,12.65565 -0.568027,-4.06708 -0.84068,-7.36164 -0.272653,-3.29455 -0.272653,-6.20285 v -13.08736 h 4.7487085 V 290.9213 H -11.80783 l -5.294015,-15.79117 q -0.727075,-2.20394 -1.385987,-4.52149 -0.636191,-2.31756 -1.181497,-4.86232 -0.04544,-0.31809 -0.159048,-0.77252 -0.09088,-0.45442 -0.227211,-1.04517 0.06816,0.59075 0.113606,1.02245 0.04544,0.40898 0.06816,0.70436 l 0.249932,3.56721 0.249932,4.33973 q 0.02272,0.36354 0.02272,0.88612 0.02272,0.52259 0.02272,1.1815 l 0.249932,15.2913 h -4.657825 z"
           inkscape:connector-curvature="0" />
        <path
           id="path59"
           style="font-style:normal;font-variant:normal;font-weight:500;font-stretch:condensed;font-family:Futura;-inkscape-font-specification:'Futura Medium Condensed';stroke-width:0.26458332"
           d="M -4.7188476,255.83992 H 10.663334 v 4.13524 H 5.3693186 V 290.9213 H 0.73421523 V 259.97516 H -4.7188476 Z"
           inkscape:connector-curvature="0" />
        <path
           id="path61"
           style="font-style:normal;font-variant:normal;font-weight:500;font-stretch:condensed;font-family:Futura;-inkscape-font-specification:'Futura Medium Condensed';stroke-width:0.26458332"
           d="m 13.25354,255.83992 h 12.564765 v 3.99892 h -7.838778 v 11.11061 h 6.952655 v 3.99892 h -6.952655 v 11.97401 h 7.838778 v 3.99892 H 13.25354 Z"
           inkscape:connector-curvature="0" />
        <path
           id="path63"
           style="font-style:normal;font-variant:normal;font-weight:500;font-stretch:condensed;font-family:Futura;-inkscape-font-specification:'Futura Medium Condensed';stroke-width:0.26458332"
           d="m 30.158035,255.83992 h 6.22558 q 3.862586,0 5.748437,1.84041 2.385715,2.38572 2.385715,7.29347 0,3.77171 -1.272382,6.06654 -1.24966,2.27211 -3.589933,2.81741 l 6.452791,17.06355 h -4.794151 l -6.430069,-17.17715 v 17.17715 h -4.725988 z m 4.725988,15.54123 q 2.749252,0 3.885307,-1.27238 1.136055,-1.27238 1.136055,-4.29428 0,-1.63592 -0.249933,-2.7947 -0.22721,-1.15878 -0.749796,-1.88585 -0.499864,-0.72708 -1.317823,-1.06789 -0.795238,-0.34082 -1.908572,-0.34082 h -0.795238 z"
           inkscape:connector-curvature="0" />
        <path
           id="path65"
           style="font-style:normal;font-variant:normal;font-weight:500;font-stretch:condensed;font-family:Futura;-inkscape-font-specification:'Futura Medium Condensed';stroke-width:0.26458332"
           d="m 47.448789,255.83992 h 15.382182 v 4.13524 h -5.294016 v 30.94614 h -4.635103 v -30.94614 h -5.453063 z"
           inkscape:connector-curvature="0" />
        <path
           id="path67"
           style="font-style:normal;font-variant:normal;font-weight:500;font-stretch:condensed;font-family:Futura;-inkscape-font-specification:'Futura Medium Condensed';stroke-width:0.26458332"
           d="m 69.783621,255.83992 h 3.680818 l 7.520682,35.08138 h -4.680546 l -1.317823,-6.83905 h -6.952655 l -1.340545,6.83905 h -4.544219 z m 4.521498,24.58423 -1.04517,-5.58939 q -1.045171,-5.70299 -1.704082,-12.17851 -0.318096,3.15824 -0.81796,6.40735 -0.499864,3.2264 -1.181497,6.86177 l -0.863401,4.49878 z"
           inkscape:connector-curvature="0" />
        <path
           id="path69"
           style="font-style:normal;font-variant:normal;font-weight:500;font-stretch:condensed;font-family:Futura;-inkscape-font-specification:'Futura Medium Condensed';stroke-width:0.26458332"
           d="m 83.779815,255.83992 h 4.725988 v 35.08138 h -4.725988 z"
           inkscape:connector-curvature="0" />
        <path
           id="path71"
           style="font-style:normal;font-variant:normal;font-weight:500;font-stretch:condensed;font-family:Futura;-inkscape-font-specification:'Futura Medium Condensed';stroke-width:0.26458332"
           d="m 93.958862,255.83992 h 4.407892 l 4.703266,13.9962 q 2.0449,5.9302 3.61265,12.65565 -0.56802,-4.06708 -0.84068,-7.36164 -0.27265,-3.29455 -0.27265,-6.20285 v -13.08736 h 4.74871 v 35.08138 h -4.43061 l -5.29402,-15.79117 q -0.727074,-2.20394 -1.385985,-4.52149 -0.636191,-2.31756 -1.181497,-4.86232 -0.04544,-0.31809 -0.159048,-0.77252 -0.09088,-0.45442 -0.227211,-1.04517 0.06816,0.59075 0.113606,1.02245 0.04544,0.40898 0.06816,0.70436 l 0.249932,3.56721 0.249932,4.33973 q 0.02272,0.36354 0.02272,0.88612 0.02272,0.52259 0.02272,1.1815 l 0.249932,15.2913 h -4.657824 z"
           inkscape:connector-curvature="0" />
        <path
           id="path73"
           style="font-style:normal;font-variant:normal;font-weight:500;font-stretch:condensed;font-family:Futura;-inkscape-font-specification:'Futura Medium Condensed';stroke-width:0.26458332"
           d="m 117.42976,255.83992 h 4.04435 l 3.09007,14.31429 q 0.56803,2.68109 1.02245,5.3849 0.47714,2.68109 0.8634,5.63484 0.0454,-0.38626 0.0682,-0.59075 0.0227,-0.22721 0.0454,-0.3181 l 0.65891,-4.02163 0.59075,-3.81715 0.52258,-2.52204 2.74926,-14.06436 h 4.08979 l 3.2264,35.08138 h -4.5215 l -0.79524,-11.90586 q -0.0454,-0.90884 -0.0909,-1.56775 -0.0227,-0.65892 -0.0227,-1.09062 l -0.20449,-4.70326 -0.11361,-4.31701 q 0,-0.0454 -0.0227,-0.18177 0,-0.15905 -0.0227,-0.40898 l -0.11361,0.70435 q -0.18177,1.24966 -0.34081,2.18123 -0.13633,0.93156 -0.24993,1.56775 l -0.59075,3.20368 -0.22721,1.20422 -2.95375,15.31402 h -3.18095 l -2.77197,-13.22368 q -0.56803,-2.61293 -1.02245,-5.29402 -0.4317,-2.70381 -0.79524,-5.65755 l -1.36327,24.17525 h -4.45333 z"
           inkscape:connector-curvature="0" />
        <path
           id="path75"
           style="font-style:normal;font-variant:normal;font-weight:500;font-stretch:condensed;font-family:Futura;-inkscape-font-specification:'Futura Medium Condensed';stroke-width:0.26458332"
           d="m 142.30936,255.83992 h 12.56476 v 3.99892 h -7.83878 v 11.11061 h 6.95266 v 3.99892 h -6.95266 v 11.97401 h 7.83878 v 3.99892 h -12.56476 z"
           inkscape:connector-curvature="0" />
        <path
           id="path77"
           style="font-style:normal;font-variant:normal;font-weight:500;font-stretch:condensed;font-family:Futura;-inkscape-font-specification:'Futura Medium Condensed';stroke-width:0.26458332"
           d="m 159.21385,255.83992 h 4.40789 l 4.70327,13.9962 q 2.0449,5.9302 3.61265,12.65565 -0.56802,-4.06708 -0.84068,-7.36164 -0.27265,-3.29455 -0.27265,-6.20285 v -13.08736 h 4.74871 v 35.08138 h -4.43061 l -5.29402,-15.79117 q -0.72707,-2.20394 -1.38599,-4.52149 -0.63619,-2.31756 -1.18149,-4.86232 -0.0454,-0.31809 -0.15905,-0.77252 -0.0909,-0.45442 -0.22721,-1.04517 0.0682,0.59075 0.1136,1.02245 0.0454,0.40898 0.0682,0.70436 l 0.24993,3.56721 0.24993,4.33973 q 0.0227,0.36354 0.0227,0.88612 0.0227,0.52259 0.0227,1.1815 l 0.24994,15.2913 h -4.65783 z"
           inkscape:connector-curvature="0" />
        <path
           id="path79"
           style="font-style:normal;font-variant:normal;font-weight:500;font-stretch:condensed;font-family:Futura;-inkscape-font-specification:'Futura Medium Condensed';stroke-width:0.26458332"
           d="m 178.23141,255.83992 h 15.38218 v 4.13524 h -5.29401 v 30.94614 h -4.6351 v -30.94614 h -5.45307 z"
           inkscape:connector-curvature="0" />
      </g>
    </g>
  </g>
</svg>
