<svg width="110" height="20" xmlns="http://www.w3.org/2000/svg">
  <path d="M12.236 6.09c0-3.668-2.17-5.818-6.741-5.818H0v19.456h3.798v-7.923H5.61l3.302 7.923h4.063l-3.74-8.681c2.112-.781 3.001-2.535 3.001-4.958zM5.772 8.737H3.798V3.396h1.974a2.441 2.441 0 0 1 1.985.685c.52.514.77 1.233.681 1.952a2.348 2.348 0 0 1-.655 1.994 2.452 2.452 0 0 1-2.011.711zM26.216 0c-3.683 0-6.268 1.72-6.268 6.52v6.96c0 4.8 2.585 6.52 6.268 6.52 3.682 0 6.268-1.72 6.268-6.52V6.52c0-4.8-2.586-6.52-6.268-6.52zm2.47 13.967c0 2.15-.958 2.74-2.47 2.74-1.512 0-2.482-.59-2.482-2.74V6.044c0-2.15.97-2.739 2.482-2.739 1.512 0 2.47.589 2.47 2.74v7.922zM46.879.26h-5.322v19.468h5.276c4.352 0 6.764-1.833 6.926-6.79V7.005C53.644 2.094 51.231.26 46.88.26zm3.14 12.304c0 2.909-1.154 3.882-3.302 3.882h-1.316V3.554h1.316c2.367 0 3.302 1.132 3.302 3.882v5.128zm16.554-1.245h5.033V8.025h-5.033V3.554h6.603V.26h-10.39v19.468h10.667v-3.293h-6.88zM87.524 0c-3.682 0-6.268 1.72-6.268 6.52v6.96c0 4.8 2.586 6.52 6.268 6.52 3.683 0 6.269-1.72 6.269-6.52V6.52c0-4.8-2.598-6.52-6.269-6.52zm2.517 13.967c0 2.15-.958 2.74-2.47 2.74-1.513 0-2.47-.59-2.47-2.74V6.044c0-2.15.957-2.739 2.47-2.739 1.512 0 2.47.577 2.47 2.728v7.934zm14.291-8.387h5.114V3.554h-5.114V2.4h5.183V.272h-7.63v7.425h2.447zM110 13.277l-1.732-1.71-2.574 2.525-2.563-2.524-1.731 1.709 2.563 2.512-2.563 2.513L103.13 20l2.563-2.513L108.268 20 110 18.302l-2.563-2.513z" fill="#FFF"/>
</svg>
