<?xml version="1.0" encoding="UTF-8"?>
<svg id="a" data-name="Layer 1" xmlns="http://www.w3.org/2000/svg" viewBox="0 0 800 155.5">
  <path d="M130.73,2.9c-4.04,37.58-11.36,131.07-12.47,147.6-5.69,0-14.29-.39-24.02-.39-13.92,0-22,.19-25.3.39-.55-7.09-.91-24.21-1.83-43.69-.55-13.19-.91-29.32-1.28-43.89h-.74c-.55,14.57-1.1,30.89-1.99,44.08-1.09,19.49-1.83,37-2.39,43.5-5.13.19-13.92-.39-24.01-.39-12.65,0-19.98.19-23.28.39C12.15,131.6,4.82,40.49.6,2.9h43c0,9.6,0,41.13,1.28,65.33.19,7.88.74,18.89,1.29,28.34h.73c.37-9.6.74-20.28,1.1-28.54,1.83-24.41,3.67-55.11,3.67-65.1,5.32,0,15.03.38,20.72.38s15.77-.38,21.07-.38c-.18,8.45.19,40.73,1.29,65.33.36,7.88.73,18.89,1.09,28.34h.91c.37-9.6.92-20.28,1.47-28.54,1.47-24.41,2.75-54.71,2.75-65.1l29.73-.09Z"/>
  <path d="M234.85,94.01c4.21,0,8.8-.2,13.38-.39-.19,8.46-.19,18.14-.19,27.55s0,20.28.19,29.32h-59.59c.19-11.23.56-42.31.56-73.8s0-59.63-.56-73.8h46.72c-.19,10.44-.55,42.51-.55,73.01l.03,18.11Z"/>
  <path d="M300.84,105.82c4.21,0,5.86-2.75,5.86-32.08s-1.83-32.67-5.86-32.67h-2.2c-.37,11.02-.37,22.63-.37,35.03s0,21.64.18,29.71h2.39ZM306.88,2.9c29.33,0,42.9,8.65,42.9,66.16,0,70.06-11.37,81.48-43.63,81.48h-50.6c.18-21.06.37-42.31.37-73.63s-.19-53.13-.37-73.98l51.32-.02Z"/>
  <path d="M436.85,54.66c0-10.44-.91-13.78-3.3-13.78-2.74,0-3.98,2.55-3.98,32.27s1.09,32.67,4.21,32.67c2.39,0,3.3-5.11,3.3-13.97,0-4.33-.19-9.6-.37-14.94,6.6.2,13.38.2,20.16.2s14.12,0,21.08-.2c.19,6.31.37,12.21.37,22.41-.05,42.47-13.43,53.14-46.43,53.14-35.56,0-45.83-16.92-45.83-80.1,0-59.03,12.47-71.43,46.72-71.43s45.65,7.88,45.65,46.25c0,9.6-.37,16.14-.74,23.02-6.96-.19-14.12-.19-20.88-.19s-13.56,0-20.16.19c.18-6.49.18-11.61.18-15.54Z"/>
  <path d="M580.02,2.9c-.18,21.25-.37,42.5-.37,73.79s.19,52.29.37,73.8h-43.44c.18-13.98.18-32.68.37-49.79h-7.16c0,17.07.19,35.81.37,49.79h-43.44c.36-21.26.55-42.51.55-73.8s-.19-52.55-.55-73.79h43.44c-.18,13.97-.37,32.86-.37,49.78,1.22.17,2.44.24,3.67.2h3.49c-.19-17.13-.19-36.22-.37-49.98h43.44Z"/>
  <path d="M586.32,150.5c.37-13.87.37-28.08.37-48.74s0-34.83-.37-48.74h45.46c-.18,13.87-.36,27.94-.36,48.61s.18,34.96.36,48.86h-45.46Z"/>
  <path d="M586.32,45.75c.37-6.11.37-12.35.37-21.43s0-15.32-.37-21.44h45.46c-.18,6.11-.36,12.29-.36,21.34s.18,15.38.36,21.49l-45.46.03Z"/>
  <path d="M135.41,150.5c.37-13.87.37-28.08.37-48.74s0-34.83-.37-48.74h45.47c-.19,13.87-.37,27.94-.37,48.61s.18,34.96.37,48.86h-45.47Z"/>
  <path d="M135.41,45.75c.37-6.11.37-12.35.37-21.43s0-15.32-.37-21.44h45.47c-.19,6.11-.37,12.29-.37,21.34s.18,15.38.37,21.49l-45.47.03Z"/>
  <path d="M685.11,94.01c4.21,0,8.79-.2,13.38-.39-.18,8.46-.18,18.14-.18,27.55s0,20.28.18,29.32h-59.57c.18-11.23.54-42.31.54-73.8s0-59.63-.54-73.8h46.72c-.18,10.44-.55,42.51-.55,73.01l.02,18.11Z"/>
  <path d="M750.45,105.82c4.22,0,5.87-2.75,5.87-32.08s-1.84-32.67-5.87-32.67h-2.2c-.37,11.02-.37,22.63-.37,35.03s0,21.64.19,29.71h2.38ZM756.5,2.9c29.34,0,42.89,8.65,42.89,66.16,0,70.06-11.36,81.48-43.63,81.48h-50.6c.19-21.06.37-42.31.37-73.63s-.18-53.13-.37-73.98l51.33-.02Z"/>
</svg>