<?xml version="1.0" encoding="UTF-8"?>
<svg id="Layer_1" xmlns="http://www.w3.org/2000/svg" version="1.1" viewBox="0 0 64 64">
  <!-- Generator: Adobe Illustrator 30.1.0, SVG Export Plug-In . SVG Version: 2.1.1 Build 136)  -->
  <defs>
    <style>
      .st0 {
        fill: #bdbdbd;
      }
    </style>
  </defs>
  <path class="st0" d="M12.38,16.5l3.71,3.72c-2.92,3.93-4.44,8.95-3.75,14.35,1.13,8.82,8.22,15.92,17.03,17.09,5.38.71,10.37-.79,14.3-3.66l3.71,3.72c1.17,1.18,3.07,1.18,4.24.02h0c1.18-1.17,1.18-3.07.02-4.24L16.63,12.28c-1.17-1.18-3.07-1.18-4.24-.02h0c-1.18,1.17-1.18,3.07-.02,4.24h.01ZM29.41,45.6c-5.56-1.03-10.02-5.5-11.02-11.07-.67-3.7.17-7.19,1.97-9.99l19.01,19.15c-2.8,1.78-6.27,2.59-9.96,1.91Z"/>
  <path class="st0" d="M35.97,18.76c4.45,1.34,7.99,4.89,9.3,9.35.91,3.11.66,6.07-.3,8.68l4.52,4.56c1.59-2.96,2.45-6.37,2.34-9.99-.33-10.28-8.77-18.78-19.04-19.18-3.62-.14-7.02.7-10,2.27l4.52,4.55c2.61-.95,5.57-1.17,8.67-.24h-.01Z"/>
</svg>